C:\Users\israe\Dropbox\PhDWork\ExperimentalData\subject9\145\P9S145W01_filtered35.mot
nRows=10
nColumns=28

name C:\Users\israe\Dropbox\PhDWork\ExperimentalData\subject9\145\P9S145W01_filtered35.mot
datacolumns 28
datarows 10
range 0.5570000000 0.5660000000
endheader
time	ground_force_1_vx	ground_force_1_vy	ground_force_1_vz	ground_force_1_px	ground_force_1_py	ground_force_1_pz	ground_moment_1_mx	ground_moment_1_my	ground_moment_1_mz	ground_force_2_vx	ground_force_2_vy	ground_force_2_vz	ground_force_2_px	ground_force_2_py	ground_force_2_pz	ground_moment_2_mx	ground_moment_2_my	ground_moment_2_mz	ground_force_3_vx	ground_force_3_vy	ground_force_3_vz	ground_force_3_px	ground_force_3_py	ground_force_3_pz	ground_moment_3_mx	ground_moment_3_my	ground_moment_3_mz
        0.5570000000	       25.0817770949	      856.1223616004	       74.0502272817	        0.1988394961	        0.0000558755	       -0.3004071324	     -120.0516580706	       17.9671074293	      -71.5837109003	       -0.0000808449	        0.0001858546	        0.0003084989	        0.2029003516	       -0.0000795827	        0.4543649445	        0.0000108364	       -0.0000228915	        0.0000140284	        0.0000000000	        0.0000000000	        0.0000000000	        0.2076431971	        0.0000770316	        1.3583900146	        0.0000000000	        0.0000000000	       -0.0000000000	
        0.5580000000	       25.0306731289	      861.6823709983	       74.9157395813	        0.1988394961	        0.0000558755	       -0.3004071324	     -121.0193002440	       18.0825624813	      -71.9887852524	       -0.0001413262	        0.0000000000	        0.0003766273	        0.2029003516	       -0.0000795827	        0.4543649445	        0.0000059856	       -0.0000270702	       -0.0000014519	        0.0000000000	        0.0000000000	        0.0000000000	        0.2076431971	        0.0000770316	        1.3583900146	        0.0000000000	        0.0000000000	       -0.0000000000	
        0.5590000000	       24.9908264533	      867.1841609599	       75.8157355377	        0.1988394961	        0.0000558755	       -0.3004071324	     -121.9829658358	       18.1993052936	      -72.3902202152	       -0.0002173911	        0.0000000000	        0.0004422299	        0.2029003516	       -0.0000795827	        0.4543649445	       -0.0000017145	       -0.0000307273	       -0.0000241273	        0.0000000000	        0.0000000000	        0.0000000000	        0.2076431971	        0.0000770316	        1.3583900146	        0.0000000000	        0.0000000000	        0.0000000000	
        0.5600000000	       24.9634096940	      872.6203655708	       76.7527010480	        0.1988394961	        0.0000558755	       -0.3004071324	     -122.9429629841	       18.3176914616	      -72.7882121593	       -0.0003093933	        0.0000000000	        0.0004980524	        0.2029003516	       -0.0000795827	        0.4543649445	       -0.0000129019	       -0.0000332782	       -0.0000553104	        0.0000000000	        0.0000000000	        0.0000000000	        0.2076431971	        0.0000770316	        1.3583900146	        0.0000000000	        0.0000000000	        0.0000000000	
        0.5610000000	       24.9501096392	      877.9814290345	       77.7271828425	        0.1988394961	        0.0000558755	       -0.3004071324	     -123.8991446823	       18.4377336729	      -73.1830376998	       -0.0004163818	        0.0000000000	        0.0005343092	        0.2029003516	       -0.0000795827	        0.4543649445	       -0.0000281946	       -0.0000339637	       -0.0000961493	        0.0000000000	        0.0000000000	        0.0000000000	        0.2076431971	        0.0000770316	        1.3583900146	       -0.0000000000	        0.0000000000	        0.0000000000	
        0.5620000000	       24.9528436764	      883.2584379955	       78.7380722085	        0.1988394961	        0.0000558755	       -0.3004071324	     -124.8508711412	       18.5590106645	      -73.5749640743	       -0.0005355718	        0.0000000000	        0.0005383887	        0.2029003516	       -0.0000795827	        0.4543649445	       -0.0000481240	       -0.0000318371	       -0.0001474443	        0.0000000000	        0.0000000000	        0.0000000000	        0.2076431971	        0.0000770316	        1.3583900146	       -0.0000000000	        0.0000000000	        0.0000000000	
        0.5630000000	       24.9729815615	      888.4461309306	       79.7828712263	        0.1988394961	        0.0000558755	       -0.3004071324	     -125.7970917212	       18.6807425694	      -73.9642661511	       -0.0006617327	        0.0000000000	        0.0004946794	        0.2029003516	       -0.0000795827	        0.4543649445	       -0.0000730447	       -0.0000257635	       -0.0002094086	        0.0000000000	        0.0000000000	        0.0000000000	        0.2076431971	        0.0000770316	        1.3583900146	       -0.0000000000	        0.0000000000	        0.0000000000	
        0.5640000000	       25.0108929908	      893.5430591904	       80.8580076981	        0.1988394961	        0.0000558755	       -0.3004071324	     -126.7364855311	       18.8020215015	      -74.3512093521	       -0.0007865140	        0.0000000000	        0.0003845921	        0.2029003516	       -0.0000795827	        0.4543649445	       -0.0001030185	       -0.0000144351	       -0.0002813712	        0.0000000000	        0.0000000000	        0.0000000000	        0.2076431971	        0.0000770316	        1.3583900146	       -0.0000000000	       -0.0000000000	        0.0000000000	
        0.5650000000	       25.0661660215	      898.5493136816	       81.9595956036	        0.1988394961	        0.0000558755	       -0.3004071324	     -127.6676339080	       18.9220869765	      -74.7358956649	       -0.0008977392	        0.0000000000	        0.0001868666	        0.2029003516	       -0.0000795827	        0.4543649445	       -0.0001376699	        0.0000035899	       -0.0003614203	        0.0000000000	        0.0000000000	        0.0000000000	        0.2076431971	        0.0000770316	        1.3583900146	       -0.0000000000	       -0.0000000000	        0.0000000000	
        0.5660000000	       25.1381068859	      903.4640055049	       83.0839869212	        0.1988394961	        0.0000558755	       -0.3004071324	     -128.5891215505	       19.0404960136	      -75.1181877073	       -0.0009787183	        0.0000000000	       -0.0001217301	        0.2029003516	       -0.0000795827	        0.4543649445	       -0.0001760133	        0.0000298173	       -0.0004459919	        0.0000000000	        0.0000000000	        0.0000000000	        0.2076431971	        0.0000770316	        1.3583900146	       -0.0000000000	       -0.0000000000	        0.0000000000	
